<svg xmlns="http://www.w3.org/2000/svg" xmlns:android="http://schemas.android.com/apk/res/android" viewBox="0 0 108 108" width="512" height="512">
    <rect width="108" height="108" rx="24" fill="#1B2A26" />
    <!-- Background Decor -->
    <path fill="#243833" d="M54,10 C78.3,10 98,29.7 98,54 C98,78.3 78.3,98 54,98 C29.7,98 10,78.3 10,54 C10,29.7 29.7,10 54,10 Z" /><path fill="#2C463F" d="M26,30 L82,30 C85.3,30 88,32.7 88,36 L88,72 C88,75.3 85.3,78 82,78 L26,78 C22.7,78 20,75.3 20,72 L20,36 C20,32.7 22.7,30 26,30 Z" /><path stroke="#3D5E55" stroke-width="1" d="M28,34 L28,74 M36,34 L36,74 M44,34 L44,74 M52,34 L52,74 M60,34 L60,74 M68,34 L68,74 M76,34 L76,74 M84,34 L84,74" />
    <!-- Foreground Iconography -->
    <path fill="#85D2BD" d="M32,35 C32,32.8 33.8,31 36,31 L72,31 C74.2,31 76,32.8 76,35 L76,71 C76,73.2 74.2,75 72,75 L36,75 C33.8,75 32,73.2 32,71 Z" /><path fill="#64B9A3" d="M32,48 L76,48 L76,71 C76,73.2 74.2,75 72,75 L36,75 C33.8,75 32,73.2 32,71 Z" /><path stroke="#1B2A26" stroke-width="1.5" stroke-linecap="round" d="M36,31 L36,39 M42,31 L42,36 M48,31 L48,39 M54,31 L54,36 M60,31 L60,39 M66,31 L66,36 M72,31 L72,39" /><path stroke="#E6F7F2" stroke-width="2.5" stroke-linecap="round" d="M38,62 L70,44" /><path stroke="#E6F7F2" stroke-width="2.5" stroke-linecap="round" d="M41,56 L38,62 L44,65" /><path stroke="#E6F7F2" stroke-width="2.5" stroke-linecap="round" d="M64,41 L70,44 L67,50" /><path fill="#F9D371" d="M65.5,58 C62.5,58 60,60.5 60,63.5 C60,65.2 60.8,66.8 62,67.8 L54,73 L56.5,76 L64.8,70.5 C65,70.6 65.2,70.6 65.5,70.6 C68.5,70.6 71,68.1 71,65.1 C71,62.1 68.5,58 65.5,58 Z" /><path stroke="#F9D371" stroke-width="2.5" stroke-linecap="round" d="M55,67 L68,54" /><circle fill="#1B2A26" />
</svg>