<svg xmlns="http://www.w3.org/2000/svg" viewBox="0 0 108 108" width="512" height="512">
    <rect width="108" height="108" rx="24" fill="#1E1A16" />
    <!-- Background Decor -->
    <path fill="#2B231C" d="M54,12 C77.2,12 96,30.8 96,54 C96,77.2 77.2,96 54,96 C30.8,96 12,77.2 12,54 C12,30.8 30.8,12 54,12 Z" /><path fill="#3A2F25" android:fillAlpha="0.55" d="M54,20 C72.8,20 88,35.2 88,54 C88,72.8 72.8,88 54,88 C35.2,88 20,72.8 20,54 C20,35.2 35.2,20 54,20 Z" /><path stroke="#574433" stroke-width="1" android:strokeAlpha="0.4" d="M24,54 C24,37.4 37.4,24 54,24 C70.6,24 84,37.4 84,54" />
    <!-- Foreground Iconography -->
    <path fill="#F7BE6D" d="M54,30 C40,30 28,42 28,57 C28,68 36,76 46,78 L62,78 C72,76 80,68 80,57 C80,42 68,30 54,30 Z" /><path fill="#E29D45" d="M54,30 C58,30 68,34 74,42 C67,49 59,51 51,46 C44,42 38,45 34,49 C37,38 45,30 54,30 Z" /><path stroke="#8B4513" stroke-width="2.5" stroke-linecap="round" d="M42,44 C46,47 50,47 54,43 C58,39 63,40 67,46" /><path fill="#FFE7BA" d="M40,58 C40,56.3 41.3,55 43,55 C44.7,55 46,56.3 46,58 C46,59.7 44.7,61 43,61 C41.3,61 40,59.7 40,58 Z M61,56 C61,54.9 61.9,54 63,54 C64.1,54 65,54.9 65,56 C65,57.1 64.1,58 63,58 C61.9,58 61,57.1 61,56 Z M52,65 C52,63.6 53.1,62.5 54.5,62.5 C55.9,62.5 57,63.6 57,65 C57,66.4 55.9,67.5 54.5,67.5 C53.1,67.5 52,66.4 52,65 Z" /><path stroke="#40C4FF" stroke-width="2" stroke-linecap="round" d="M24,54 L28,54 M80,54 L84,54" /><path stroke="#00E5FF" stroke-width="1.5" stroke-linecap="round" d="M26,50 L26,58 M82,50 L82,58" /><path fill="#00E5FF" d="M54,23 L55.8,26.8 L59.6,28.6 L55.8,30.4 L54,34.2 L52.2,30.4 L48.4,28.6 L52.2,26.8 Z" /><path stroke="#76FF03" stroke-width="2" stroke-linecap="round" d="M48,82 C52,83.5 56,83.5 60,82" />
</svg>